<svg xmlns="http://www.w3.org/2000/svg" viewBox="0 0 32 32">
  <defs>
    <radialGradient id="sunGradient" cx="50%" cy="50%" r="50%">
      <stop offset="0%" style="stop-color:#FFEB3B;stop-opacity:1" />
      <stop offset="50%" style="stop-color:#4CAF50;stop-opacity:1" />
      <stop offset="100%" style="stop-color:#2196F3;stop-opacity:1" />
    </radialGradient>
  </defs>

  <!-- Outer rays (12 rays) -->
  <g fill="#4CAF50">
    <path d="M16 2 L17.5 8 L14.5 8 Z"/>
    <path d="M16 30 L17.5 24 L14.5 24 Z"/>
    <path d="M2 16 L8 17.5 L8 14.5 Z"/>
    <path d="M30 16 L24 17.5 L24 14.5 Z"/>
    <path d="M6.1 6.1 L10.3 10.3 L8.5 12.1 Z" transform="rotate(0 16 16)"/>
    <path d="M25.9 25.9 L21.7 21.7 L23.5 19.9 Z" transform="rotate(0 16 16)"/>
    <path d="M6.1 25.9 L10.3 21.7 L8.5 19.9 Z" transform="rotate(0 16 16)"/>
    <path d="M25.9 6.1 L21.7 10.3 L23.5 12.1 Z" transform="rotate(0 16 16)"/>
  </g>

  <!-- Inner rays (accent with blue) -->
  <g fill="#2196F3" opacity="0.8">
    <circle cx="16" cy="5" r="1"/>
    <circle cx="16" cy="27" r="1"/>
    <circle cx="5" cy="16" r="1"/>
    <circle cx="27" cy="16" r="1"/>
    <circle cx="8.5" cy="8.5" r="1"/>
    <circle cx="23.5" cy="23.5" r="1"/>
    <circle cx="8.5" cy="23.5" r="1"/>
    <circle cx="23.5" cy="8.5" r="1"/>
  </g>

  <!-- Center sun circle with gradient -->
  <circle cx="16" cy="16" r="7" fill="url(#sunGradient)"/>

  <!-- Inner highlight circle -->
  <circle cx="16" cy="16" r="5" fill="#4CAF50"/>

  <!-- Core bright center -->
  <circle cx="16" cy="16" r="3" fill="#FFEB3B"/>
</svg>
